<svg width="205" height="891" viewBox="0 0 205 891" fill="none" xmlns="http://www.w3.org/2000/svg">
<path d="M27.18 890.09L0.829984 871.39V859.66C0.829984 848.1 8.81999 840.45 20.72 840.45H69V857.11H21.4C16.3 857.11 13.75 859.66 13.58 864.59L13.58 867.99L21.74 873.43H184.6C189.7 873.43 192.25 870.88 192.25 865.78V862.55L184.26 857.11H97.05V840.45H178.65L205 859.32V870.88C205 882.44 197.01 890.09 185.28 890.09H27.18ZM205 798.275H0.829984L0.829984 768.015C0.829984 757.135 9.33 748.805 23.61 748.805H27.52L61.35 761.215C64.41 762.235 66.96 764.445 66.96 767.845L67.3 781.785H68.83L70.7 765.805C72.06 754.245 82.77 748.805 93.31 748.805H197.35C200.24 748.805 203.47 748.125 205 746.765V761.045C205 763.425 203.81 765.295 197.69 765.295L89.4 765.465C83.96 765.465 79.37 768.695 78.86 773.965L78.18 781.785H205V798.275ZM13.58 781.615L57.61 781.785L57.1 775.835L27.52 765.465H23.95C16.47 765.465 13.58 768.865 13.58 772.435V781.615ZM205 706.137H0.999992L0.999992 663.977H13.75V689.477H59.48V668.057H72.23V689.477H192.25V663.977H205V706.137ZM205 626.011L0.999992 613.601L0.999992 587.761L205 575.521V590.311L177.97 591.841V609.691L205 611.051V626.011ZM15.11 601.361L165.22 609.181V592.351L15.11 600.001V601.361ZM205 518.813H13.75V537.173H0.999992L0.999992 483.963H13.75V502.153H205V518.813ZM205 441.468H0.999992V424.808H205V441.468ZM0.999992 383.13V368.17L163.01 359.5L184.94 358.48V357.12L0.999992 347.43V332.64L205 347.94V367.66L0.999992 383.13ZM205 290.892H0.999992V274.232H205V290.892ZM0.829984 230.004L0.829984 206.204C0.999992 188.864 8.64998 180.534 23.95 180.534H54.89L205 194.814L205 230.004H0.829984ZM13.41 213.344L192.42 213.854V207.224L54.04 197.194H24.12C16.3 197.194 13.41 200.084 13.41 206.714V213.344ZM205 140.747L0.999992 128.337L0.999992 102.497L205 90.2573V105.047L177.97 106.577V124.427L205 125.787V140.747ZM15.11 116.097L165.22 123.917V107.087L15.11 114.737V116.097ZM0.829984 50.209L0.829984 26.409C0.999992 9.06898 8.64998 0.738982 23.95 0.738982H54.89L205 15.019V50.209H0.829984ZM13.41 33.549L192.42 34.059V27.429L54.04 17.399H24.12C16.3 17.399 13.41 20.289 13.41 26.919V33.549Z" fill="url(#paint0_linear_458_202)"/>
<defs>
<linearGradient id="paint0_linear_458_202" x1="28.7072" y1="866.55" x2="509.928" y2="263.509" gradientUnits="userSpaceOnUse">
<stop stop-color="#D7D7D7"/>
<stop offset="0.5" stop-color="#C1BFBF"/>
<stop offset="1" stop-color="#9D9C9C"/>
</linearGradient>
</defs>
</svg>
