<svg width="247" height="139" viewBox="0 0 247 139" fill="none" xmlns="http://www.w3.org/2000/svg">
<path d="M1.25 0.949995H8.25C13.35 0.999998 15.8 3.25 15.8 7.75V16.85L11.6 61H1.25V0.949995ZM6.15 4.65L6 57.3H7.95L10.9 16.6V7.8C10.9 5.5 10.05 4.65 8.1 4.65H6.15ZM52.6617 56.3V61H43.6117C40.2617 61 38.0117 59.05 38.0117 55.65V14.1C38.0117 10.75 40.3617 8.5 43.7617 8.5H47.9617C50.3617 8.5 52.3117 9.99999 52.3117 13.3V45.4L45.6117 50.7L42.9117 51.15V55.95C42.9117 57.3 43.8117 58.05 45.1117 57.85L51.9117 55.75C52.3617 55.65 52.6617 55.85 52.6617 56.3ZM47.6617 45.15V14.95C47.6617 12.85 46.9117 11.85 45.2617 11.85C43.6617 11.85 42.9117 12.85 42.9117 14.95V47.85L44.9617 47.65L47.6617 45.15ZM78.7219 14L72.0219 11.95C70.7219 11.7 69.8219 12.45 69.8219 13.8V16.15L79.2219 24C79.2219 25.1 79.2219 54.2 79.2219 54.7C79.2219 59.75 77.1719 61.55 74.9219 61.55C71.9219 61.55 70.8219 58.65 70.1219 55.7H69.8219C69.8219 55.8 69.8219 60.85 69.8219 61H64.6719V24.45C64.6719 24 64.9719 23.7 65.4219 23.7H69.8219C69.8219 24.4 69.8219 49.35 69.8219 49.95C69.9719 53 70.3719 56.7 72.4219 56.7C73.5719 56.7 74.5719 55.45 74.5719 51.9V25.6L66.5719 18.55C65.2219 17.75 64.6719 16.55 64.6719 14.75V13.35C64.6719 10.55 66.9219 8.5 70.2719 8.5H79.4219V13.45C79.4219 13.9 79.1219 14.15 78.7219 14ZM91.4785 13.45V8.5H100.479C103.829 8.5 106.079 10.75 106.079 14.1V61H101.179V55.7H100.829C100.129 58.65 99.0785 61.55 96.0285 61.55C93.8285 61.55 91.7785 60 91.7785 55.7V24.85L99.4785 16.85L101.179 16.3V13.8C101.179 12.45 100.279 11.7 98.9785 11.9L92.1785 14C91.7285 14.15 91.4785 13.9 91.4785 13.45ZM101.179 19.35L96.4285 24.1V52.8C96.4285 55.65 97.3785 56.7 98.5285 56.7C100.579 56.7 101.029 53 101.179 49.95V19.35ZM118.289 8.5H123.189V13.85H123.489C124.239 10.9 125.789 8 128.789 8C130.989 8 132.839 9.75 132.839 14.3V18.75L128.339 24.3C128.089 24.55 127.939 24.45 127.939 24.1V16.75C127.939 13.85 126.889 12.85 125.839 12.85C123.739 12.85 123.339 16.8 123.189 19.6V61H118.289V8.5ZM144.558 8.5H149.458V13.85H149.758C150.508 10.9 152.058 8 155.058 8C157.258 8 159.108 9.75 159.108 14.3V18.75L154.608 24.3C154.358 24.55 154.208 24.45 154.208 24.1V16.75C154.208 13.85 153.158 12.85 152.108 12.85C150.008 12.85 149.608 16.8 149.458 19.6V61H144.558V8.5ZM176.228 8.5H179.928C183.328 8.5 185.278 10.75 185.278 14.1V53.2L179.778 61H176.328C172.928 61 170.678 58.5 170.678 54.8V15.6L176.228 8.5ZM178.828 57.4L180.378 54.9V15.15C180.378 12.95 179.878 12.05 177.928 12.05H177.128L175.578 13.95V53.75C175.578 56.35 176.378 57.45 178.328 57.4H178.828ZM197.439 61V0.999998H202.339V61H197.439ZM214.627 61V0.999998H219.527V61H214.627ZM237.214 8.5H240.914C244.314 8.5 246.264 10.75 246.264 14.1V53.2L240.764 61H237.314C233.914 61 231.664 58.5 231.664 54.8V15.6L237.214 8.5ZM239.814 57.4L241.364 54.9V15.15C241.364 12.95 240.864 12.05 238.914 12.05H238.114L236.564 13.95V53.75C236.564 56.35 237.364 57.45 239.314 57.4H239.814ZM0.5 79H4.9L7.45 118.9L7.65 133.1H8L8.45 118.9L11 79H17.5L20.2 118.9L20.5 133.1H20.85L21.15 118.9L23.6 79H28L23.6 139H17.4L14.25 84.6L11.15 139H4.9L0.5 79ZM54.1754 134.3V139H45.1254C41.7754 139 39.5254 137.05 39.5254 133.65V92.1C39.5254 88.75 41.8754 86.5 45.2754 86.5H49.4754C51.8754 86.5 53.8254 88 53.8254 91.3V123.4L47.1254 128.7L44.4254 129.15V133.95C44.4254 135.3 45.3254 136.05 46.6254 135.85L53.4254 133.75C53.8754 133.65 54.1754 133.85 54.1754 134.3ZM49.1754 123.15V92.95C49.1754 90.85 48.4254 89.85 46.7754 89.85C45.1754 89.85 44.4254 90.85 44.4254 92.95V125.85L46.4754 125.65L49.1754 123.15ZM66.3355 139V79H71.2355V91.85H71.5855C72.3355 88.9 73.8355 86 76.8355 86C79.0855 86 80.9355 87.55 80.9355 91.85V131.9L75.3855 139H66.3355ZM71.2355 97.6V135.4H74.4855L76.0355 133.5V94.75C76.0355 91.85 74.9855 90.85 73.9355 90.85C71.9855 90.85 71.4355 94.5 71.2355 97.6Z" fill="white"/>
</svg>
