<svg width="900" height="421" viewBox="0 0 900 421" fill="none" xmlns="http://www.w3.org/2000/svg">
<path d="M0.75 0.649967H49.75C85.45 0.999983 102.6 16.75 102.6 48.25V111.95L73.2 421H0.75V0.649967ZM35.05 26.55L34 395.1H47.65L68.3 110.2V48.6C68.3 32.5 62.35 26.55 48.7 26.55H35.05ZM193.264 421V0.999983H227.564V421H193.264ZM318.621 421V0.999983H410.671V27.25H352.921V131.55H404.021V157.8H352.921V421H318.621ZM493.963 421V0.999983H586.013V27.25H528.263V131.55H579.363V157.8H528.263V421H493.963ZM672.805 421V0.999983H707.105V421H672.805ZM797.462 54.55L835.962 0.649967H860.112C883.562 0.649967 899.312 17.1 899.312 41.25V367.1L860.812 421H836.662C813.212 421 797.462 404.9 797.462 380.75V54.55ZM831.762 43.35V379C831.762 389.85 837.012 395.45 847.512 395.45H854.162L865.012 378.3V42.65C865.012 32.15 860.112 26.9 849.962 26.55H842.612L831.762 43.35Z" fill="url(#paint0_linear_443_63)"/>
<defs>
<linearGradient id="paint0_linear_443_63" x1="20" y1="58.5" x2="890.5" y2="403" gradientUnits="userSpaceOnUse">
<stop stop-color="#D7D7D7"/>
<stop offset="0.5" stop-color="#C1BFBF"/>
<stop offset="1" stop-color="#9D9C9C"/>
<stop offset="1.0001" stop-color="#9D9C9C"/>
</linearGradient>
</defs>
</svg>
