<svg width="217" height="862" viewBox="0 0 217 862" fill="none" xmlns="http://www.w3.org/2000/svg">
<path d="M0.819983 861.5L0.819983 836.3C0.999991 817.94 9.09998 809.12 25.3 809.12H58.06L217 824.24V861.5H0.819983ZM14.14 843.86L203.68 844.4V837.38L57.16 826.76H25.48C17.2 826.76 14.14 829.82 14.14 836.84L14.14 843.86ZM217 762.493H0.999991V744.853H217V762.493ZM217 698.023H0.999991L0.999991 650.683H14.5L14.5 680.383H68.14V654.103H81.64V680.383H217V698.023ZM217 607.848H0.999991L0.999991 560.508H14.5V590.208H68.14V563.928H81.64V590.208H217V607.848ZM217 517.672H0.999991L0.999991 473.032H14.5L14.5 500.032H62.92V477.352H76.42V500.032H203.5V473.032H217V517.672ZM217 430.133H0.819983L0.819983 398.093C0.819983 386.573 9.82 377.753 24.94 377.753H29.08L64.9 390.893C68.14 391.973 70.84 394.313 70.84 397.913L71.2 412.673H72.82L74.8 395.753C76.24 383.513 87.58 377.753 98.74 377.753H208.9C211.96 377.753 215.38 377.033 217 375.593V390.713C217 393.233 215.74 395.213 209.26 395.213L94.6 395.393C88.84 395.393 83.98 398.813 83.44 404.393L82.72 412.673H217V430.133ZM14.32 412.493L60.94 412.673L60.4 406.373L29.08 395.393H25.3C17.38 395.393 14.32 398.993 14.32 402.773V412.493ZM217 332.574H0.999991L0.999991 287.934H14.5L14.5 314.934H62.92V292.254H76.42V314.934H203.5V287.934H217V332.574ZM217 245.035H0.999991L0.999991 225.055L145 205.975H0.999991V188.335H217V208.315L36.28 227.395H217V245.035ZM217 125.442H14.5L14.5 144.882H0.999991L0.999991 88.542H14.5V107.802H217V125.442ZM217 45.3477H0.999991L0.999991 0.707656H14.5L14.5 27.7077H62.92V5.02765H76.42V27.7077H203.5V0.707656H217V45.3477Z" fill="url(#paint0_linear_458_210)"/>
<defs>
<linearGradient id="paint0_linear_458_210" x1="30.7928" y1="839.467" x2="485.118" y2="216.986" gradientUnits="userSpaceOnUse">
<stop stop-color="#D7D7D7"/>
<stop offset="0.5" stop-color="#C1BFBF"/>
<stop offset="1" stop-color="#9D9C9C"/>
</linearGradient>
</defs>
</svg>
