<svg width="242" height="62" viewBox="0 0 242 62" fill="none" xmlns="http://www.w3.org/2000/svg">
<path d="M0.25 0.949995H7.25C12.35 0.999998 14.8 3.25 14.8 7.75V16.85L10.6 61H0.25V0.949995ZM5.15 4.65L5 57.3H6.95L9.9 16.6V7.8C9.9 5.5 9.05 4.65 7.1 4.65H5.15ZM27.152 5.75V1.69999C27.152 1.25 27.352 0.999998 27.802 0.999998H31.402C31.852 0.999998 32.052 1.25 32.052 1.69999V5.75C32.052 6.2 31.852 6.45 31.402 6.45H27.802C27.352 6.45 27.152 6.2 27.152 5.75ZM27.152 61V8.5H32.052V61H27.152ZM58.2395 14L51.5395 11.95C50.2395 11.7 49.3395 12.45 49.3395 13.8V16.15L58.7395 24C58.7395 25.1 58.7395 54.2 58.7395 54.7C58.7395 59.75 56.6895 61.55 54.4395 61.55C51.4395 61.55 50.3395 58.65 49.6395 55.7H49.3395C49.3395 55.8 49.3395 60.85 49.3395 61H44.1895V24.45C44.1895 24 44.4895 23.7 44.9395 23.7H49.3395C49.3395 24.4 49.3395 49.35 49.3395 49.95C49.4895 53 49.8895 56.7 51.9395 56.7C53.0895 56.7 54.0895 55.45 54.0895 51.9V25.6L46.0895 18.55C44.7395 17.75 44.1895 16.55 44.1895 14.75V13.35C44.1895 10.55 46.4395 8.5 49.7895 8.5H58.9395V13.45C58.9395 13.9 58.6395 14.15 58.2395 14ZM85.6461 56.3V61H76.5961C73.2461 61 70.9961 59.05 70.9961 55.65V14.1C70.9961 10.75 73.3461 8.5 76.7461 8.5H80.9461C83.3461 8.5 85.2961 9.99999 85.2961 13.3V45.4L78.5961 50.7L75.8961 51.15V55.95C75.8961 57.3 76.7961 58.05 78.0961 57.85L84.8961 55.75C85.3461 55.65 85.6461 55.85 85.6461 56.3ZM80.6461 45.15V14.95C80.6461 12.85 79.8961 11.85 78.2461 11.85C76.6461 11.85 75.8961 12.85 75.8961 14.95V47.85L77.9461 47.65L80.6461 45.15ZM106.856 3.55C108.056 3.55 108.556 3 108.556 1.4V0.999998H109.856V2.5C109.856 5.1 109.056 6.25 107.106 6.25C105.106 6.25 103.856 3.74999 102.256 3.74999C101.056 3.74999 100.556 4.5 100.556 6.1V6.5H99.2563V4.95C99.2563 2.4 100.056 1.05 102.006 1.05C104.006 1.05 105.256 3.55 106.856 3.55ZM97.8063 61V8.5H102.706V13.85H103.006C103.756 10.9 105.206 8 108.356 8C110.706 8 112.356 9.55 112.356 13.85V61H107.456V16.75C107.456 13.8 106.556 12.85 105.406 12.85C103.256 12.85 102.856 16.5 102.706 19.6V61H97.8063ZM130.111 8.5H133.811C137.211 8.5 139.161 10.75 139.161 14.1V53.2L133.661 61H130.211C126.811 61 124.561 58.5 124.561 54.8V15.6L130.111 8.5ZM132.711 57.4L134.261 54.9V15.15C134.261 12.95 133.761 12.05 131.811 12.05H131.011L129.461 13.95V53.75C129.461 56.35 130.261 57.45 132.211 57.4H132.711ZM160.682 0.999998H165.082L167.632 40.9L167.832 55.1H168.182L168.632 40.9L171.182 0.999998H177.682L180.382 40.9L180.682 55.1H181.032L181.332 40.9L183.782 0.999998H188.182L183.782 61H177.582L174.432 6.6L171.332 61H165.082L160.682 0.999998ZM214.357 56.3V61H205.307C201.957 61 199.707 59.05 199.707 55.65V14.1C199.707 10.75 202.057 8.5 205.457 8.5H209.657C212.057 8.5 214.007 9.99999 214.007 13.3V45.4L207.307 50.7L204.607 51.15V55.95C204.607 57.3 205.507 58.05 206.807 57.85L213.607 55.75C214.057 55.65 214.357 55.85 214.357 56.3ZM209.357 45.15V14.95C209.357 12.85 208.607 11.85 206.957 11.85C205.357 11.85 204.607 12.85 204.607 14.95V47.85L206.657 47.65L209.357 45.15ZM226.517 61V0.999998H231.417V13.85H231.767C232.517 10.9 234.017 8 237.017 8C239.267 8 241.117 9.55 241.117 13.85V53.9L235.567 61H226.517ZM231.417 19.6V57.4H234.667L236.217 55.5V16.75C236.217 13.85 235.167 12.85 234.117 12.85C232.167 12.85 231.617 16.5 231.417 19.6Z" fill="white"/>
</svg>
