<svg width="217" height="869" viewBox="0 0 217 869" fill="none" xmlns="http://www.w3.org/2000/svg">
<path d="M217 868.7H0.999991L0.999991 851.06H217V868.7ZM217 804.23H0.999991L0.999991 784.25L145 765.17H0.999991V747.53H217V767.51L36.28 786.59H217V804.23ZM217 702.277H0.999991L0.999991 682.297L145 663.217H0.999991L0.999991 645.577H217V665.557L36.28 684.637H217V702.277ZM28.54 600.684L0.819983 580.884L0.819983 568.464C0.819983 556.404 9.27999 548.304 21.7 548.304H189.28L217 568.104V580.524C217 592.584 208.72 600.684 196.3 600.684H28.54ZM22.78 583.044H195.4C200.98 583.044 203.86 580.344 203.86 574.944V571.524L195.04 565.944H22.42C17.02 565.944 14.32 568.464 14.14 573.684V577.464L22.78 583.044ZM0.999991 506.169V490.329L172.54 481.149L195.76 480.069V478.629L0.999991 468.369L0.999991 452.709L217 468.909V489.789L0.999991 506.169ZM217 413.005L0.999991 399.865L0.999991 372.505L217 359.545V375.205L188.38 376.825V395.725L217 397.165V413.005ZM15.94 386.905L174.88 395.185V377.365L15.94 385.465V386.905ZM28.72 317.501L0.819983 297.701V285.281C0.819983 273.041 9.27999 264.941 21.88 264.941H73V282.581H22.6C17.2 282.581 14.5 285.281 14.32 290.501V294.101L22.96 299.861H195.4C200.8 299.861 203.5 297.161 203.5 291.761V288.341L195.04 282.581H102.7V264.941H189.1L217 284.921V297.161C217 309.401 208.54 317.501 196.12 317.501H28.72ZM217 218.485H0.999991V200.845H217V218.485ZM28.54 154.376L0.819983 134.576V122.156C0.819983 110.096 9.27999 101.996 21.7 101.996H189.28L217 121.796V134.216C217 146.276 208.72 154.376 196.3 154.376H28.54ZM22.78 136.736H195.4C200.98 136.736 203.86 134.036 203.86 128.636V125.216L195.04 119.636H22.42C17.02 119.636 14.32 122.156 14.14 127.376V131.156L22.78 136.736ZM217 57.1602H0.999991L0.999991 37.1802L145 18.1002H0.999991V0.460156H217V20.4402L36.28 39.5202H217V57.1602Z" fill="url(#paint0_linear_458_208)"/>
<defs>
<linearGradient id="paint0_linear_458_208" x1="30.7928" y1="848.1" x2="493.292" y2="223.061" gradientUnits="userSpaceOnUse">
<stop stop-color="#D7D7D7"/>
<stop offset="0.5" stop-color="#C1BFBF"/>
<stop offset="1" stop-color="#9D9C9C"/>
</linearGradient>
</defs>
</svg>
