<svg width="210" height="47" viewBox="0 0 210 47" fill="none" xmlns="http://www.w3.org/2000/svg">
<g clip-path="url(#clip0_32_247)">
<path d="M12.9882 13.9349V45.1357H0V1.36523H16.9224C24.3452 1.36523 30.1563 3.05301 34.3558 6.43183C39.3447 10.4707 41.8408 15.9543 41.8408 22.8827C41.8408 29.8111 39.7083 34.9171 35.4433 39.107C31.1783 43.2969 25.6849 45.3918 18.9697 45.3918C18.1803 45.3918 16.8896 45.3491 15.0978 45.2637V32.4051H17.1779C24.7481 32.4051 28.5348 29.2299 28.5348 22.8827C28.5348 16.9197 24.8136 13.9349 17.3712 13.9349H12.9882Z" fill="#FBAE17"/>
<path d="M60.9414 1.36523V45.1357H47.9531V1.36523H60.9414Z" fill="#FBAE17"/>
<path d="M86.0825 21.9863V33.7219H81.7651V45.139H68.7769V17.977C68.7769 12.8677 70.3492 8.64171 73.4939 5.29572C76.6419 1.94972 80.6022 0.275085 85.3782 0.275085C90.6456 0.275085 95.0481 2.55062 98.5892 7.10498L87.9366 14.897C87.3404 13.2289 86.2823 12.3949 84.7689 12.3949C82.7642 12.3949 81.7618 13.7838 81.7618 16.565V21.983H86.0792L86.0825 21.9863Z" fill="#FBAE17"/>
<path d="M117.624 21.9863V33.7219H113.307V45.139H100.319V17.977C100.319 13.1239 101.737 9.06861 104.574 5.80799C104.725 5.63396 104.879 5.46321 105.036 5.29575C105.124 5.20052 105.213 5.10858 105.304 5.01664C108.407 1.85453 112.279 0.275116 116.92 0.275116C122.188 0.275116 126.59 2.55065 130.131 7.10501L119.479 14.897C118.882 13.2289 117.824 12.3949 116.311 12.3949C114.306 12.3949 113.304 13.7839 113.304 16.5651V21.983H117.621L117.624 21.9863ZM114.024 13.3406L103.722 7.13128C103.722 7.13128 106.435 2.92498 109.409 2.05811C112.387 1.19124 115.662 -0.45056 119.593 0.534521" fill="#FBAE17"/>
<path d="M145.744 1.36523V45.1357H132.755V1.36523H145.744Z" fill="#FBAE17"/>
<path d="M175.176 0.275085C181.36 0.275085 186.664 2.53092 191.089 7.04259C195.515 11.5543 197.726 16.9525 197.726 23.2373C197.726 29.5221 195.498 35.0583 191.04 39.5273C186.582 43.9963 181.167 46.2291 174.789 46.2291C168.411 46.2291 163.049 43.9831 158.571 39.4944C154.093 35.0058 151.853 29.5845 151.853 23.2373C151.853 16.8901 154.106 11.3934 158.617 6.94737C163.131 2.50137 168.647 0.275085 175.176 0.275085ZM174.789 13.1665C172.123 13.1665 169.853 14.1516 167.976 16.1152C166.099 18.0821 165.162 20.4561 165.162 23.234C165.162 26.012 166.105 28.386 167.992 30.3529C169.879 32.3198 172.146 33.3016 174.789 33.3016C177.433 33.3016 179.752 32.3231 181.619 30.366C183.486 28.409 184.416 26.0317 184.416 23.2308C184.416 20.4298 183.483 18.0525 181.619 16.0955C179.752 14.1385 177.475 13.1599 174.789 13.1599V13.1665Z" fill="#FBAE17"/>
<path d="M204.268 45.9435C207.434 45.9435 210 43.5428 210 40.5813C210 37.6199 207.434 35.2192 204.268 35.2192C201.102 35.2192 198.535 37.6199 198.535 40.5813C198.535 43.5428 201.102 45.9435 204.268 45.9435Z" fill="#FBAE17"/>
</g>
<defs>
<clipPath id="clip0_32_247">
<rect width="210" height="46" fill="white" transform="translate(0 0.229126)"/>
</clipPath>
</defs>
</svg>
