<svg width="296" height="56" viewBox="0 0 296 56" fill="none" xmlns="http://www.w3.org/2000/svg">
<path d="M0.125 55V0.954996H5.39L9.62 36.37L13.895 0.954996H19.16V55H14.75V11.44L10.7 55H8.585L4.535 11.44V55H0.125ZM30.1783 12.205V7.75H38.2783C41.2933 7.75 43.3183 9.775 43.3183 12.79V55H38.9083V50.23H38.5933C37.9633 52.885 37.0183 55.495 34.2733 55.495C32.2933 55.495 30.4483 54.1 30.4483 50.23V22.465L37.3783 15.265L38.9083 14.77V12.52C38.9083 11.305 38.0983 10.63 36.9283 10.81L30.8083 12.7C30.4033 12.835 30.1783 12.61 30.1783 12.205ZM38.9083 17.515L34.6333 21.79V47.62C34.6333 50.185 35.4883 51.13 36.5233 51.13C38.3683 51.13 38.7733 47.8 38.9083 45.055V17.515ZM54.3075 55V7.75H58.7175V12.565H58.9875C59.6625 9.91 60.9675 7.3 63.8025 7.3C65.9175 7.3 67.4025 8.695 67.4025 12.565V55H62.9925V15.175C62.9925 12.52 62.1825 11.665 61.1475 11.665C59.2125 11.665 58.8525 14.95 58.7175 17.74V55H54.3075ZM80.4113 0.999998H85.0463C85.3163 0.999998 85.4513 1.18 85.3613 1.45L83.5163 7.3C83.4263 7.57 83.5163 7.75 83.7863 7.75H88.6013V11.035H84.8213V50.275C84.8213 51.355 85.4063 51.85 86.1263 51.85C86.3513 51.85 86.5313 51.805 86.7113 51.76L89.3213 50.14C89.6813 49.96 89.9063 50.14 89.9063 50.545V55H85.4513C82.4363 55 80.4113 52.975 80.4113 49.96V11.035H77.8463V7.75H80.4113V0.999998ZM113.368 50.77V55H105.223C102.208 55 100.183 53.245 100.183 50.185V12.79C100.183 9.775 102.298 7.75 105.358 7.75H109.138C111.298 7.75 113.053 9.1 113.053 12.07V40.96L107.023 45.73L104.593 46.135V50.455C104.593 51.67 105.403 52.345 106.573 52.165L112.693 50.275C113.098 50.185 113.368 50.365 113.368 50.77ZM108.868 40.735V13.555C108.868 11.665 108.193 10.765 106.708 10.765C105.268 10.765 104.593 11.665 104.593 13.555V43.165L106.438 42.985L108.868 40.735ZM124.312 55V7.75H128.722V12.565H128.992C129.667 9.91 130.972 7.3 133.807 7.3C135.922 7.3 137.407 8.695 137.407 12.565V55H132.997V15.175C132.997 12.52 132.187 11.665 131.152 11.665C129.217 11.665 128.857 14.95 128.722 17.74V55H124.312ZM148.526 5.275V1.63C148.526 1.225 148.706 0.999998 149.111 0.999998H152.351C152.756 0.999998 152.936 1.225 152.936 1.63V5.275C152.936 5.68 152.756 5.905 152.351 5.905H149.111C148.706 5.905 148.526 5.68 148.526 5.275ZM148.526 55V7.75H152.936V55H148.526ZM163.995 55V7.75H168.405V12.565H168.72C169.35 9.91 170.745 7.3 173.445 7.3C175.425 7.3 177.135 8.695 177.135 12.565H177.405C178.08 9.91 179.475 7.3 182.13 7.3C184.155 7.3 185.82 8.695 185.82 12.565V55H181.41V15.175C181.41 12.565 180.465 11.665 179.52 11.665C177.765 11.665 177.27 14.995 177.135 17.74V55H172.68V15.175C172.68 12.565 171.735 11.665 170.835 11.665C169.035 11.665 168.54 14.995 168.405 17.74V55H163.995ZM196.954 5.275V1.63C196.954 1.225 197.134 0.999998 197.539 0.999998H200.779C201.184 0.999998 201.364 1.225 201.364 1.63V5.275C201.364 5.68 201.184 5.905 200.779 5.905H197.539C197.134 5.905 196.954 5.68 196.954 5.275ZM196.954 55V7.75H201.364V55H196.954ZM225.473 50.77V55H217.328C214.313 55 212.288 53.245 212.288 50.185V12.79C212.288 9.775 214.403 7.75 217.463 7.75H221.243C223.403 7.75 225.158 9.1 225.158 12.07V40.96L219.128 45.73L216.698 46.135V50.455C216.698 51.67 217.508 52.345 218.678 52.165L224.798 50.275C225.203 50.185 225.473 50.365 225.473 50.77ZM220.973 40.735V13.555C220.973 11.665 220.298 10.765 218.813 10.765C217.373 10.765 216.698 11.665 216.698 13.555V43.165L218.543 42.985L220.973 40.735ZM236.417 55V7.75H240.827V12.565H241.097C241.772 9.91 243.077 7.3 245.912 7.3C248.027 7.3 249.512 8.695 249.512 12.565V55H245.102V15.175C245.102 12.52 244.292 11.665 243.257 11.665C241.322 11.665 240.962 14.95 240.827 17.74V55H236.417ZM262.521 0.999998H267.156C267.426 0.999998 267.561 1.18 267.471 1.45L265.626 7.3C265.536 7.57 265.626 7.75 265.896 7.75H270.711V11.035H266.931V50.275C266.931 51.355 267.516 51.85 268.236 51.85C268.461 51.85 268.641 51.805 268.821 51.76L271.431 50.14C271.791 49.96 272.016 50.14 272.016 50.545V55H267.561C264.546 55 262.521 52.975 262.521 49.96V11.035H259.956V7.75H262.521V0.999998ZM287.288 7.75H290.618C293.678 7.75 295.433 9.775 295.433 12.79V47.98L290.483 55H287.378C284.318 55 282.293 52.75 282.293 49.42V14.14L287.288 7.75ZM289.628 51.76L291.023 49.51V13.735C291.023 11.755 290.573 10.945 288.818 10.945H288.098L286.703 12.655V48.475C286.703 50.815 287.423 51.805 289.178 51.76H289.628Z" fill="white"/>
</svg>
